<svg width="1300" height="197" viewBox="0 0 1300 197" fill="none" xmlns="http://www.w3.org/2000/svg" stroke="transparent" stroke-width="0px">
<g style="mix-blend-mode:lighten" opacity="0.31">
<path fill-rule="evenodd" clip-rule="evenodd" d="M1300 84.4286L1228 93.8095C1156 103.19 1011 121.952 867 108.242C722 93.8095 578 46.9048 433 23.8132C289 0 144 0 72 0L0 0V197H72C144 197 289 197 433 197C578 197 722 197 867 197C1011 197 1156 197 1228 197L1300 197V84.4286Z" fill="white"/>
<path fill-rule="evenodd" clip-rule="evenodd" d="M1300 84.4286L1228 93.8095C1156 103.19 1011 121.952 867 108.242C722 93.8095 578 46.9048 433 23.8132C289 0 144 0 72 0L0 0V197H72C144 197 289 197 433 197C578 197 722 197 867 197C1011 197 1156 197 1228 197L1300 197V84.4286Z" stroke="black"/>
</g>
</svg>
