<svg width="727" height="151" viewBox="0 0 727 151" fill="none" xmlns="http://www.w3.org/2000/svg" stroke='transparent' stroke-width="0px">
<g style="mix-blend-mode:lighten" opacity="0.5">
<path fill-rule="evenodd" clip-rule="evenodd" d="M1300 64.7143L1228 71.9048C1156 79.0952 1011 93.4762 867 82.967C722 71.9048 578 35.9524 433 18.2527C289 0 144 0 72 0L0 0V151L72 151C144 151 289 151 433 151C578 151 722 151 867 151C1011 151 1156 151 1228 151L1300 151V64.7143Z" fill="white"/>
<path fill-rule="evenodd" clip-rule="evenodd" d="M1300 64.7143L1228 71.9048C1156 79.0952 1011 93.4762 867 82.967C722 71.9048 578 35.9524 433 18.2527C289 0 144 0 72 0L0 0V151L72 151C144 151 289 151 433 151C578 151 722 151 867 151C1011 151 1156 151 1228 151L1300 151V64.7143Z" stroke="black"/>
</g>
</svg>
