<svg svg width="1300" height="151" viewBox="0 0 1300 151" fill="none" xmlns="http://www.w3.org/2000/svg" stroke='transparent' stroke-width="0px">
<g style="mix-blend-mode:lighten" opacity="0.5">
<path fill-rule="evenodd" clip-rule="evenodd" d="M-727 64.7143L-655 71.9048C-583 79.0952 -438 93.4762 -294 82.967C-149 71.9048 -5 35.9524 140 18.2527C284 0 429 0 501 0L573 0V151L501 151C429 151 284 151 140 151C-5 151 -149 151 -294 151C-438 151 -583 151 -655 151L-727 151V64.7143Z" fill="white"/>
<path fill-rule="evenodd" clip-rule="evenodd" d="M-727 64.7143L-655 71.9048C-583 79.0952 -438 93.4762 -294 82.967C-149 71.9048 -5 35.9524 140 18.2527C284 0 429 0 501 0L573 0V151L501 151C429 151 284 151 140 151C-5 151 -149 151 -294 151C-438 151 -583 151 -655 151L-727 151V64.7143Z" stroke="black"/>
</g>
</svg>
